<svg width="39" height="39" viewBox="0 0 39 39" fill="#144DDB" xmlns="http://www.w3.org/2000/svg">
<path d="M33.7199 28.4375C32.5986 28.4375 31.6898 29.3464 31.6898 30.4676C31.6898 31.5889 32.5986 32.4977 33.7199 32.4977C34.8411 32.4977 35.75 31.5889 35.75 30.4676C35.75 29.3464 34.8411 28.4375 33.7199 28.4375ZM28.0312 29.25H4.46875C3.79566 29.25 3.25 29.7957 3.25 30.4688C3.25 31.0858 3.70849 31.5957 4.30337 31.6765L4.46875 31.6875H28.0312C28.7043 31.6875 29.25 31.1418 29.25 30.4688C29.25 29.8517 28.7914 29.3418 28.1967 29.261L28.0312 29.25ZM33.7199 17.875C32.5986 17.875 31.6898 18.7839 31.6898 19.9051C31.6898 21.0264 32.5986 21.9352 33.7199 21.9352C34.8411 21.9352 35.75 21.0264 35.75 19.9051C35.75 18.7839 34.8411 17.875 33.7199 17.875ZM28.0312 18.6875H4.46875C3.79566 18.6875 3.25 19.2332 3.25 19.9062C3.25 20.5233 3.70849 21.0332 4.30337 21.114L4.46875 21.125H28.0312C28.7043 21.125 29.25 20.5793 29.25 19.9062C29.25 19.2892 28.7914 18.7793 28.1967 18.6985L28.0312 18.6875ZM33.7199 7.3125C32.5986 7.3125 31.6898 8.22141 31.6898 9.3426C31.6898 10.4638 32.5986 11.3727 33.7199 11.3727C34.8411 11.3727 35.75 10.4638 35.75 9.3426C35.75 8.22141 34.8411 7.3125 33.7199 7.3125ZM28.0312 8.125H4.46875C3.79566 8.125 3.25 8.67066 3.25 9.34375C3.25 9.96076 3.70849 10.4707 4.30337 10.5514L4.46875 10.5625H28.0312C28.7043 10.5625 29.25 10.0168 29.25 9.34375C29.25 8.72674 28.7914 8.21683 28.1967 8.13613L28.0312 8.125Z" fill="#144DDB"/>
</svg>
