<svg width="271" height="38" viewBox="0 0 209 68" fill="none" xmlns="http://www.w3.org/2000/svg">
<path d="M81.0397 18.6923V22.8817H72.706V50H67.5707V22.8817H59.1919V18.6923H81.0397ZM84.5288 37.4769C84.5288 34.9843 85.0393 32.777 86.0604 30.855C87.1115 28.933 88.5229 27.4464 90.2948 26.3953C92.0967 25.3142 94.0787 24.7736 96.241 24.7736C98.193 24.7736 99.8898 25.164 101.331 25.9449C102.803 26.6956 103.974 27.6416 104.845 28.7828V25.1791H110.025V50H104.845V46.3061C103.974 47.4774 102.788 48.4534 101.286 49.2342C99.7847 50.015 98.0729 50.4054 96.1509 50.4054C94.0187 50.4054 92.0666 49.8649 90.2948 48.7837C88.5229 47.6726 87.1115 46.141 86.0604 44.1889C85.0393 42.2069 84.5288 39.9695 84.5288 37.4769ZM104.845 37.567C104.845 35.8552 104.485 34.3687 103.764 33.1073C103.073 31.846 102.157 30.885 101.016 30.2243C99.8748 29.5636 98.6435 29.2333 97.3221 29.2333C96.0008 29.2333 94.7695 29.5636 93.6283 30.2243C92.4871 30.855 91.5561 31.801 90.8354 33.0623C90.1446 34.2936 89.7993 35.7651 89.7993 37.4769C89.7993 39.1887 90.1446 40.6903 90.8354 41.9816C91.5561 43.273 92.4871 44.264 93.6283 44.9547C94.7995 45.6154 96.0308 45.9458 97.3221 45.9458C98.6435 45.9458 99.8748 45.6154 101.016 44.9547C102.157 44.294 103.073 43.333 103.764 42.0717C104.485 40.7804 104.845 39.2788 104.845 37.567ZM125.78 50.4054C123.828 50.4054 122.071 50.0601 120.509 49.3693C118.978 48.6486 117.762 47.6876 116.861 46.4863C115.96 45.255 115.479 43.8886 115.419 42.387H120.735C120.825 43.4381 121.32 44.3241 122.221 45.0448C123.152 45.7355 124.308 46.0809 125.69 46.0809C127.131 46.0809 128.243 45.8106 129.023 45.2701C129.834 44.6995 130.24 43.9787 130.24 43.1078C130.24 42.1768 129.789 41.4861 128.888 41.0356C128.017 40.5852 126.621 40.0896 124.699 39.5491C122.837 39.0385 121.32 38.543 120.149 38.0625C118.978 37.582 117.957 36.8463 117.086 35.8552C116.245 34.8642 115.825 33.5578 115.825 31.9361C115.825 30.6147 116.215 29.4135 116.996 28.3324C117.777 27.2212 118.888 26.3503 120.329 25.7196C121.801 25.089 123.483 24.7736 125.375 24.7736C128.197 24.7736 130.465 25.4944 132.177 26.9359C133.918 28.3474 134.849 30.2844 134.97 32.747H129.834C129.744 31.6358 129.294 30.7499 128.483 30.0892C127.672 29.4285 126.576 29.0982 125.194 29.0982C123.843 29.0982 122.807 29.3534 122.086 29.864C121.365 30.3745 121.005 31.0502 121.005 31.8911C121.005 32.5518 121.245 33.1073 121.726 33.5578C122.206 34.0083 122.792 34.3687 123.483 34.6389C124.173 34.8792 125.194 35.1945 126.546 35.5849C128.348 36.0654 129.819 36.561 130.96 37.0715C132.132 37.552 133.138 38.2727 133.978 39.2337C134.819 40.1948 135.255 41.4711 135.285 43.0627C135.285 44.4742 134.894 45.7355 134.114 46.8467C133.333 47.9579 132.222 48.8288 130.78 49.4594C129.369 50.0901 127.702 50.4054 125.78 50.4054ZM150.654 37.6121L162.096 50H155.159L145.969 39.3238V50H140.834V16.6652H145.969V36.0354L154.979 25.1791H162.096L150.654 37.6121ZM188.526 36.9814C188.526 37.9124 188.466 38.7532 188.345 39.504H169.381C169.531 41.4861 170.267 43.0778 171.588 44.279C172.909 45.4803 174.531 46.0809 176.453 46.0809C179.216 46.0809 181.168 44.9247 182.309 42.6123H187.85C187.099 44.8947 185.733 46.7716 183.751 48.2432C181.799 49.6847 179.366 50.4054 176.453 50.4054C174.08 50.4054 171.948 49.8799 170.056 48.8288C168.194 47.7476 166.723 46.2461 165.642 44.3241C164.591 42.372 164.065 40.1197 164.065 37.567C164.065 35.0143 164.576 32.777 165.597 30.855C166.648 28.9029 168.104 27.4014 169.966 26.3503C171.858 25.2992 174.02 24.7736 176.453 24.7736C178.795 24.7736 180.883 25.2842 182.715 26.3052C184.546 27.3263 185.973 28.7678 186.994 30.6298C188.015 32.4617 188.526 34.5789 188.526 36.9814ZM183.165 35.3597C183.135 33.4677 182.459 31.9511 181.138 30.8099C179.816 29.6687 178.18 29.0982 176.228 29.0982C174.456 29.0982 172.939 29.6687 171.678 30.8099C170.417 31.9211 169.666 33.4377 169.426 35.3597H183.165ZM198.715 28.7828C199.465 27.5215 200.456 26.5455 201.688 25.8548C202.949 25.134 204.436 24.7736 206.147 24.7736V30.0892H204.841C202.829 30.0892 201.297 30.5997 200.246 31.6208C199.225 32.6419 198.715 34.4137 198.715 36.9363V50H193.579V25.1791H198.715V28.7828Z" fill="white"/>
<circle cx="24.7759" cy="24.7759" r="17.4557" transform="matrix(1 0 0 -1 0 58.5612)" stroke="white" stroke-width="14.6403"/>
</svg>
