<svg width="39" height="39" viewBox="0 0 39 39" fill="none" xmlns="http://www.w3.org/2000/svg">
<path d="M19.5001 3.24365C26.0812 3.24365 31.4548 8.43512 31.6808 15.0234L31.6876 15.4312V22.0888L33.9301 27.2173C34.0424 27.4739 34.1003 27.7509 34.1003 28.0311C34.1003 29.1528 33.1909 30.0623 32.069 30.0623L24.3751 30.0648C24.3751 32.7571 22.1926 34.9398 19.5001 34.9398C16.9039 34.9398 14.7817 32.9102 14.6334 30.3511L14.6244 30.061L6.94682 30.0623C6.66839 30.0623 6.39293 30.005 6.13755 29.8942C5.1086 29.4471 4.63678 28.2508 5.08372 27.2218L7.31265 22.0903V15.431C7.31363 8.67946 12.7598 3.24365 19.5001 3.24365ZM21.937 30.061L17.0626 30.0648C17.0626 31.4109 18.154 32.5023 19.5001 32.5023C20.7671 32.5023 21.8084 31.5356 21.9264 30.2994L21.937 30.061ZM19.5001 5.68115C14.1049 5.68115 9.75093 10.0268 9.75015 15.4312V22.5968L7.56618 27.6248H31.4479L29.2501 22.5984L29.2503 15.4521L29.2443 15.0861C29.0637 9.83169 24.7677 5.68115 19.5001 5.68115Z" fill="white"/>
</svg>
